P2
64 64
255
0 0 0 0 0 0 0 217 221 223 223 230 234 235 235 236 237 238 238 239 240 240 241 241 242 242 243 243 243 243 243 243 243 243 243 243 243 243 243 243 243 243 243 243 242 242 241 241 240 240 240 239 236 228 228 225 222 0 0 0 0 0 0 0 
0 0 0 23 74 129 162 191 220 224 226 227 229 230 231 232 233 234 235 236 237 237 238 238 239 240 240 241 241 241 241 241 241 241 241 241 241 241 241 241 241 241 241 240 240 239 238 238 237 237 237 236 234 232 230 229 202 172 118 62 30 3 0 0 
0 0 25 84 154 181 198 210 218 223 225 226 227 229 230 231 232 233 234 235 236 236 237 237 238 239 240 240 240 240 240 240 240 240 240 240 240 240 240 240 240 240 240 239 239 238 237 237 236 236 235 234 233 232 231 227 220 206 187 142 75 35 4 0 
0 25 85 158 186 203 212 217 221 223 224 226 227 228 229 230 231 232 233 234 235 236 236 237 237 238 239 240 240 240 240 240 240 240 240 240 240 240 240 240 240 240 239 239 238 237 237 236 236 235 234 234 233 232 231 229 225 220 210 192 146 77 36 0 
0 57 129 181 203 212 217 220 222 223 224 225 226 226 226 226 227 227 228 229 230 231 232 233 233 234 235 236 236 236 236 236 236 236 236 236 236 236 236 236 236 236 235 235 234 233 232 232 232 232 233 233 232 231 231 229 227 224 220 211 190 121 48 0 
0 89 167 197 210 216 219 221 222 223 223 222 221 222 225 228 230 230 231 232 233 233 234 234 235 235 236 237 237 237 237 237 237 237 237 237 237 237 237 237 237 237 236 236 235 234 234 234 233 232 229 228 228 230 230 229 227 226 224 219 204 158 84 0 
0 117 178 205 213 217 219 221 221 220 220 222 227 230 229 226 225 226 226 227 227 227 227 228 228 228 228 228 229 229 229 229 229 229 229 229 229 229 229 229 229 229 228 228 228 228 227 227 227 229 231 232 229 227 227 228 227 226 225 222 214 190 115 0 
0 116 181 207 215 217 219 220 218 219 223 228 225 213 205 203 203 204 204 204 205 205 205 205 205 205 205 205 205 205 205 205 205 205 205 205 205 205 205 205 205 205 205 205 205 205 204 204 205 208 215 222 226 228 227 225 226 226 225 223 219 192 115 0 
0 124 184 208 214 217 218 217 218 223 226 215 196 190 190 190 191 191 192 192 192 192 192 193 193 194 194 194 193 193 193 193 193 193 193 193 193 193 193 193 193 193 193 193 192 192 192 191 190 190 192 203 217 223 226 226 224 225 224 223 220 192 125 0 
85 133 186 208 214 216 217 216 222 223 210 191 188 189 190 191 192 192 193 193 194 194 192 184 171 157 151 154 168 182 192 194 194 194 194 194 194 194 195 195 195 195 194 194 193 193 193 192 191 190 188 188 197 216 220 225 224 223 224 223 219 195 136 98 
51 138 188 208 213 215 214 219 222 213 192 187 189 192 194 195 196 196 196 197 196 183 159 128 104 94 91 97 113 142 168 190 197 197 197 198 194 183 169 160 163 176 189 197 197 197 196 196 195 193 191 188 187 199 217 220 224 221 223 222 219 197 142 60 
32 131 187 207 213 214 213 222 217 201 187 188 192 195 197 198 199 199 199 197 175 136 95 83 86 89 90 87 84 96 134 167 192 199 199 185 159 123 103 98 105 121 148 173 193 199 199 199 198 197 195 191 187 188 208 218 222 221 222 221 218 197 135 39 
15 126 186 207 212 213 214 222 212 195 187 190 194 197 199 200 200 200 200 177 131 88 86 98 107 111 111 106 95 83 99 141 174 196 179 140 96 84 87 89 87 86 100 133 164 189 199 200 200 199 197 194 189 185 201 216 221 221 221 220 217 196 129 20 
15 124 185 206 211 212 215 220 209 194 188 192 196 199 200 201 201 201 190 145 98 88 104 115 122 126 126 121 113 98 85 116 158 167 134 91 87 98 105 107 104 95 85 93 129 164 191 200 201 200 199 196 191 185 198 213 220 220 220 219 216 194 126 20 
15 123 184 206 211 212 215 220 208 194 189 193 197 200 201 201 201 200 173 122 91 99 116 127 134 138 138 133 124 112 92 101 127 118 92 89 103 112 119 122 121 115 102 85 95 136 171 197 200 201 200 197 192 186 198 213 220 219 219 218 215 193 125 20 
15 122 183 205 210 211 214 219 208 195 190 194 198 200 201 201 201 199 162 112 92 105 123 135 143 148 147 142 132 120 102 91 87 79 83 101 114 125 133 138 137 131 120 100 82 109 154 185 199 201 200 198 193 187 199 213 219 218 218 217 214 192 124 20 
15 122 182 204 209 210 213 219 208 195 190 194 198 200 201 201 201 197 159 110 94 107 126 139 148 153 152 146 136 124 110 86 68 70 90 109 123 136 146 151 150 143 131 114 88 93 135 175 197 200 200 198 193 188 199 213 219 217 217 216 213 191 123 20 
15 122 182 203 209 210 213 219 208 195 190 194 198 200 201 201 201 197 163 113 96 106 126 138 147 152 151 145 135 124 111 84 69 76 97 113 129 143 155 161 160 151 138 123 94 86 124 170 195 200 200 198 194 188 199 213 218 216 215 215 212 190 123 19 
15 121 181 203 208 209 212 218 208 195 190 194 198 200 201 202 201 198 174 122 98 102 120 133 141 145 145 140 132 121 105 80 71 83 101 116 131 145 157 163 162 153 140 124 93 86 123 171 194 199 200 198 194 188 199 213 218 215 214 214 211 189 122 19 
15 120 180 202 208 209 212 218 208 195 190 194 198 201 197 190 180 173 166 126 98 96 111 125 132 136 135 126 111 92 74 59 58 69 85 106 126 141 152 157 156 149 137 118 87 91 133 179 194 199 200 198 194 188 199 213 217 215 213 213 210 188 121 19 
15 119 178 201 207 208 211 218 208 195 190 195 190 173 146 123 114 113 114 96 72 81 99 115 122 122 111 94 83 87 95 99 97 91 85 89 105 126 141 146 145 139 129 104 82 103 153 186 196 199 200 198 194 188 199 212 217 214 213 212 209 187 120 19 
14 118 177 199 205 207 211 218 208 195 191 181 153 109 89 91 98 103 101 94 81 77 88 100 107 96 84 90 117 140 151 156 151 138 118 98 96 105 120 132 132 128 113 88 89 129 175 191 198 200 200 198 194 188 199 212 216 213 212 210 207 185 119 19 
14 118 176 197 203 205 209 217 208 196 183 148 103 86 98 115 123 126 124 119 105 83 81 84 80 80 100 141 163 173 180 183 181 175 164 139 105 98 101 111 118 111 92 88 121 169 187 196 199 200 200 198 194 188 199 212 215 212 209 208 205 184 118 19 
14 117 175 196 202 203 207 215 207 196 162 116 87 101 123 134 141 143 141 134 124 105 84 73 71 98 145 171 185 194 199 201 200 195 187 174 143 104 95 93 96 84 72 88 119 134 150 166 183 195 200 198 194 188 199 211 214 209 207 207 204 183 118 18 
14 117 175 196 201 202 206 214 206 189 139 97 93 118 137 149 156 159 156 148 136 123 98 74 91 133 171 188 200 208 214 216 215 210 203 192 174 132 95 79 66 60 67 80 88 95 101 111 128 154 178 194 193 187 197 210 212 208 206 206 203 182 117 18 
14 117 175 196 201 202 206 214 204 178 122 89 97 126 146 160 170 173 168 158 146 132 104 90 112 159 184 200 212 221 226 229 227 222 214 204 190 160 109 79 71 85 97 104 108 109 107 101 97 108 141 167 186 184 195 209 211 207 205 205 203 182 117 18 
14 117 175 196 201 202 206 214 203 170 112 85 98 128 149 165 177 180 175 164 151 135 101 100 132 173 194 209 221 230 237 239 237 232 223 212 199 179 127 96 97 116 126 132 135 137 135 127 109 88 102 138 166 180 194 208 211 206 204 204 202 181 117 18 
14 117 175 196 201 202 206 213 202 168 109 84 97 125 147 163 174 178 173 162 149 131 98 106 144 182 200 214 226 237 243 246 244 238 229 218 205 189 140 106 108 126 139 146 150 151 148 141 130 102 81 112 150 174 193 208 210 206 204 204 202 181 116 18 
14 117 175 196 201 202 206 213 202 172 113 84 91 119 141 155 165 167 163 154 142 123 91 105 145 183 202 216 228 239 246 249 247 241 231 219 207 191 143 107 106 129 145 154 160 162 159 153 142 118 83 97 137 166 192 207 210 205 203 203 201 180 116 18 
14 117 175 196 201 202 206 213 202 179 124 83 84 107 131 144 152 154 150 142 131 117 87 99 139 177 199 214 226 236 244 246 245 238 229 217 204 188 136 102 105 133 149 161 169 172 170 162 150 129 91 91 127 161 190 207 209 205 203 203 201 180 116 18 
14 118 176 197 202 202 206 214 202 183 145 94 78 88 111 130 138 139 137 131 124 115 88 89 127 166 194 208 220 230 237 239 238 232 223 212 200 177 123 96 111 137 153 166 175 179 176 167 155 135 94 89 123 160 189 206 209 205 203 203 201 180 116 18 
15 118 176 197 202 203 207 214 203 185 165 129 87 75 79 93 106 113 114 110 102 88 67 61 106 151 186 201 212 221 227 229 228 223 215 205 194 156 108 92 119 139 154 166 175 179 176 167 156 133 91 89 125 161 189 206 209 205 203 203 201 180 116 18 
15 118 177 198 203 204 208 215 204 187 176 162 132 99 83 73 70 70 70 68 65 61 61 60 84 130 165 192 202 210 215 217 216 212 205 197 176 127 92 101 126 139 151 161 169 172 170 163 153 123 83 90 133 167 189 206 209 205 203 203 201 180 116 18 
15 119 177 198 204 205 208 215 204 189 181 178 171 153 127 92 66 52 60 69 75 81 83 76 70 96 136 168 191 198 202 204 203 200 196 179 137 85 78 103 124 137 145 153 160 162 160 155 142 105 74 99 148 170 190 206 209 205 203 203 201 180 116 18 
15 119 178 199 204 205 209 215 204 190 183 185 185 181 153 101 62 70 87 96 102 104 101 94 81 74 95 124 152 177 190 194 193 186 166 127 81 55 63 82 105 121 137 146 150 152 150 139 111 73 77 123 165 173 191 207 210 205 203 203 201 180 115 17 
15 120 179 200 205 206 209 216 205 190 184 188 191 184 136 84 71 90 106 117 123 125 120 111 98 83 73 82 100 116 128 134 132 119 93 70 61 54 51 73 91 108 104 107 113 113 105 86 64 69 112 159 173 176 191 206 209 205 203 202 199 173 108 15 
15 120 180 201 206 207 210 216 205 190 185 189 192 172 116 77 82 105 122 135 143 144 138 126 111 96 82 66 60 62 72 76 74 69 67 67 65 59 50 72 101 111 114 105 92 82 76 76 89 122 156 173 180 180 191 203 205 203 200 194 184 152 91 15 
15 121 181 202 207 208 211 217 205 191 185 189 192 160 102 76 89 114 133 149 158 159 152 138 121 103 87 64 51 52 59 64 68 72 75 75 72 68 57 60 102 138 153 140 129 123 122 132 152 173 188 193 192 189 193 203 209 206 193 174 155 129 80 14 
15 121 181 203 208 209 212 217 205 191 185 189 190 156 98 76 91 118 139 156 166 167 158 143 125 107 84 58 47 54 63 70 76 81 84 84 81 76 66 55 91 140 170 175 169 164 167 181 200 208 207 202 196 194 200 211 213 198 172 149 135 122 82 13 
15 122 182 204 209 210 213 218 205 191 185 189 189 162 105 78 86 113 137 154 164 164 156 141 124 104 73 48 45 55 67 75 83 90 93 94 90 84 74 58 81 131 169 179 177 182 203 219 219 215 208 200 196 201 211 214 200 174 148 133 134 130 88 13 
15 122 183 205 210 211 214 218 206 191 185 189 190 176 124 81 77 100 127 144 153 153 146 134 116 88 63 43 50 56 70 80 89 97 102 103 99 91 81 62 74 121 160 175 186 210 226 226 220 211 203 198 202 211 214 200 174 148 132 134 146 142 96 15 
15 123 184 206 211 212 215 219 206 191 185 189 191 186 154 99 76 81 105 127 137 137 132 120 95 67 71 68 64 58 70 82 93 102 107 108 103 95 84 63 71 113 151 179 205 228 228 222 213 204 199 202 211 214 200 174 147 132 134 147 159 154 104 17 
15 123 185 207 212 213 215 219 205 190 184 188 192 190 178 141 93 75 76 93 109 114 107 87 64 71 112 114 75 63 68 82 93 102 107 108 103 95 82 60 70 109 154 190 222 228 223 214 205 200 203 212 214 201 175 147 131 133 146 161 173 166 111 18 
16 124 185 207 213 214 216 219 205 189 183 188 192 192 187 174 141 99 76 66 67 68 60 57 76 122 157 145 97 68 63 76 89 98 102 103 99 91 72 53 74 116 168 204 224 222 214 205 200 203 212 215 201 175 147 131 133 146 160 175 186 177 117 19 
16 125 186 208 214 216 216 221 206 190 181 186 190 193 192 187 176 151 118 96 84 77 83 105 141 165 175 171 127 78 61 65 79 90 95 95 89 74 52 55 92 140 177 209 218 213 205 200 203 212 215 202 175 147 131 133 145 160 175 188 198 186 123 19 
16 125 187 209 215 217 215 222 211 192 182 182 188 191 193 192 187 180 169 153 139 137 148 162 173 182 186 183 160 109 71 55 58 66 71 68 58 46 54 92 131 153 182 206 210 204 200 203 212 215 202 176 148 131 132 145 160 174 188 200 209 194 127 20 
16 126 188 210 216 218 217 220 219 199 186 179 183 188 191 191 190 188 184 179 176 175 177 181 185 188 190 187 179 152 109 77 55 44 42 46 56 77 114 145 147 159 182 200 202 199 202 211 215 202 176 148 130 132 145 160 174 188 200 211 217 199 129 20 
15 125 188 211 217 219 220 218 222 214 195 184 178 181 185 187 187 187 186 185 184 183 184 185 186 187 188 187 182 174 154 125 103 93 93 102 119 141 158 161 152 158 177 193 197 201 211 215 202 176 148 130 132 144 159 174 188 200 211 219 222 201 130 20 
14 123 187 212 218 220 221 220 219 222 213 198 187 177 175 178 179 180 180 180 179 179 179 180 180 180 180 180 178 174 168 160 153 148 148 151 156 162 166 163 149 152 170 188 199 210 215 203 176 148 130 131 144 159 174 187 200 211 219 224 224 201 128 18 
11 117 182 212 219 221 222 222 220 220 222 216 206 199 193 189 188 188 188 188 188 188 188 188 188 188 188 188 187 186 184 181 178 177 176 177 179 181 181 174 157 155 171 192 208 214 203 177 148 130 131 144 159 173 187 199 210 219 224 226 225 195 121 16 
8 105 174 211 220 222 223 223 224 222 221 222 222 217 213 212 212 213 213 213 213 213 213 213 213 213 213 213 212 212 211 210 209 209 209 209 209 210 209 199 179 169 182 202 213 202 177 148 130 131 143 158 173 187 199 210 218 224 227 228 226 183 107 14 
7 88 163 204 220 223 224 225 225 225 225 223 222 223 223 223 223 223 224 224 225 225 225 225 225 225 225 225 225 225 225 224 224 224 224 224 224 224 222 211 188 179 191 207 201 177 148 130 131 143 158 173 186 199 210 218 224 227 228 229 220 166 86 12 
4 70 143 192 217 223 225 226 226 227 227 227 227 227 227 227 227 228 228 229 230 230 231 231 231 231 231 231 231 231 231 231 231 231 231 231 230 230 227 216 192 185 193 195 175 148 129 130 143 157 172 186 199 210 218 224 227 228 229 228 203 142 68 8 
11 56 116 175 205 222 225 226 227 228 229 229 229 230 231 231 232 232 233 234 234 235 236 236 236 236 236 236 236 236 236 236 236 236 236 236 236 235 232 220 196 185 182 171 147 129 130 142 157 172 186 198 209 218 224 227 228 229 229 218 179 111 57 18 
9 48 94 141 181 205 224 227 228 229 229 230 231 232 232 233 233 234 235 236 236 237 238 238 238 238 238 238 238 238 238 238 238 238 238 238 238 237 234 221 197 179 164 145 128 129 142 157 172 185 198 209 218 223 226 228 229 230 217 188 142 91 48 14 
13 37 78 103 134 170 199 222 229 230 230 231 232 232 233 234 235 235 236 237 237 238 239 239 239 239 239 239 239 239 239 239 239 239 239 239 239 238 234 222 199 173 147 128 129 142 158 172 185 198 209 218 223 226 228 229 228 210 172 135 112 75 34 20 
0 22 58 78 94 121 159 186 207 221 229 232 234 236 237 238 238 238 239 239 240 241 241 241 241 241 241 241 241 241 241 241 241 241 241 241 241 240 236 223 196 160 133 130 144 162 178 191 201 211 220 226 229 230 226 216 193 152 113 105 87 55 22 0 
0 10 31 56 68 91 116 139 152 159 165 175 183 192 199 201 197 191 189 189 189 190 190 190 190 190 190 190 190 190 190 190 190 190 190 190 190 189 186 175 154 132 123 127 139 157 170 174 173 174 176 177 174 168 160 149 133 108 91 80 58 28 14 0 
0 5 14 30 50 73 98 106 99 92 95 102 111 123 133 132 124 119 117 117 117 118 118 118 118 118 118 119 119 119 119 119 119 119 118 118 118 118 116 111 105 99 95 96 103 116 123 119 113 109 107 103 98 91 93 105 107 93 74 52 29 16 8 0 
0 3 8 13 28 54 80 92 82 67 61 64 71 79 85 85 82 79 78 79 79 80 80 80 80 80 81 81 82 82 82 82 82 81 81 81 81 80 79 77 75 73 71 71 75 79 82 80 76 73 69 65 61 60 70 88 95 78 49 25 16 10 3 0 
0 1 3 7 12 29 51 63 61 56 51 52 58 63 66 67 67 66 66 66 67 67 68 68 68 69 69 69 70 70 70 70 70 69 69 69 69 68 68 67 66 65 64 64 64 65 66 65 64 61 57 52 49 51 61 71 66 42 23 14 9 4 1 0 
0 0 1 3 6 11 19 30 35 34 33 36 40 43 45 46 46 46 46 47 47 47 47 48 48 48 48 48 49 49 49 49 49 48 48 48 48 48 47 47 47 46 46 46 45 45 45 45 44 43 40 36 34 34 37 35 26 18 12 7 3 1 0 0 
0 0 0 1 2 4 7 10 12 13 15 17 18 20 20 21 21 21 21 21 22 22 22 22 22 22 22 22 22 22 22 22 22 22 22 22 22 22 22 22 22 21 21 21 21 21 21 21 20 20 18 17 15 14 13 12 10 8 5 3 1 0 0 0 
0 0 0 0 0 0 0 0 0 0 0 0 0 0 0 0 0 0 0 0 0 0 0 0 0 0 0 0 0 0 0 0 0 0 0 0 0 0 0 0 0 0 0 0 0 0 0 0 0 0 0 0 0 0 0 1 0 0 0 0 0 0 0 0 
