P2
64 64
255
0 0 0 0 0 0 0 217 221 223 223 230 234 235 235 236 237 238 238 239 240 240 241 241 242 242 243 243 243 243 243 243 243 243 243 243 243 243 243 243 243 243 243 243 242 242 241 241 240 240 240 239 236 228 228 225 222 0 0 0 0 0 0 0 
0 11 61 146 214 245 223 131 27 6 5 7 8 8 7 6 6 6 5 5 5 5 5 5 5 4 3 3 3 3 3 3 3 3 3 3 3 3 3 3 3 3 4 4 4 5 5 5 5 5 6 6 7 6 5 24 135 240 255 255 255 198 59 0 
0 76 185 255 235 157 102 62 29 9 5 4 5 5 4 4 4 4 4 4 3 2 2 2 3 3 2 1 1 1 1 1 1 1 1 1 1 1 1 1 1 2 2 2 3 3 2 2 2 3 4 4 4 4 6 25 60 113 190 255 255 255 209 0 
0 166 255 236 139 75 45 26 14 6 4 4 4 5 7 8 9 10 11 11 10 9 8 7 8 9 8 7 7 7 7 7 7 7 7 7 7 7 7 7 7 7 7 7 8 8 8 8 7 6 3 3 3 3 5 12 24 45 89 174 255 255 255 0 
0 242 245 151 70 36 20 11 6 3 3 6 9 9 7 5 3 3 4 4 4 4 4 4 4 5 6 5 5 5 5 5 5 5 5 5 5 5 5 5 5 5 5 5 6 5 4 4 4 6 8 9 7 4 3 7 10 18 37 84 184 255 255 0 
0 255 179 85 36 16 9 5 2 4 5 3 3 5 4 2 2 2 3 4 4 6 7 7 8 9 10 11 11 10 10 10 10 10 10 10 10 10 10 10 10 10 10 10 9 8 7 7 6 5 3 3 4 5 5 4 5 6 14 36 106 205 255 0 
0 244 131 52 19 8 5 2 4 4 4 7 1 12 25 33 36 36 37 38 38 39 39 40 41 41 42 44 44 44 44 44 44 44 44 44 44 44 44 44 44 44 43 42 41 40 41 40 38 31 20 9 4 3 4 4 2 2 6 18 58 151 255 0 
0 241 117 44 13 5 3 3 2 6 4 14 39 51 51 48 46 45 45 46 46 46 46 46 46 45 45 45 47 47 47 47 47 47 47 47 47 47 47 47 47 47 46 46 47 47 47 47 49 51 50 38 20 7 2 2 2 2 3 8 41 133 255 0 
0 244 124 45 13 5 3 2 7 3 25 54 55 38 24 18 17 17 16 16 16 17 21 33 51 68 76 71 55 36 22 17 16 16 16 16 16 15 15 14 14 15 15 16 17 17 17 18 21 28 41 52 47 27 10 3 2 3 2 7 44 139 255 0 
85 253 145 53 15 6 3 8 6 32 69 58 22 1 7 9 9 9 8 8 5 29 75 128 169 189 193 182 154 110 60 20 5 7 8 7 7 23 44 57 53 34 13 4 9 9 8 9 9 5 6 34 62 57 30 11 4 4 3 8 53 162 255 98 
51 255 139 49 13 4 7 11 17 59 57 15 8 13 13 13 13 12 11 11 60 133 188 195 167 136 123 136 165 173 139 78 24 6 6 31 83 138 171 180 170 143 99 50 13 8 11 12 13 14 14 3 31 62 47 20 6 3 3 8 48 153 255 60 
32 250 122 41 10 2 11 5 33 50 25 6 12 11 9 8 6 6 10 62 133 164 125 56 4 22 26 8 37 104 140 117 63 18 50 114 162 163 137 121 128 147 150 119 70 26 4 6 8 10 12 13 2 37 49 24 6 2 2 6 39 133 255 39 
15 248 119 38 9 2 12 4 38 38 9 10 11 8 6 4 3 4 46 118 145 85 2 44 54 54 53 52 41 12 93 125 91 60 121 153 115 49 4 7 7 46 101 133 119 73 28 4 3 6 9 13 12 19 45 29 8 2 2 6 36 129 255 20 
15 248 120 38 8 5 12 8 38 31 4 11 10 7 4 1 1 20 87 138 94 5 49 50 43 39 39 45 53 42 31 105 100 109 140 90 7 38 47 48 49 37 6 79 126 113 66 21 1 3 7 12 15 11 41 31 9 2 2 6 36 130 255 20 
15 249 121 39 8 5 11 9 37 28 2 11 9 5 1 0 1 40 114 125 41 36 49 39 35 32 32 36 43 53 16 60 97 115 78 2 43 47 44 45 50 58 53 2 84 127 100 48 11 0 5 11 16 9 39 31 8 2 2 6 36 132 255 20 
15 249 122 40 9 6 12 8 36 27 1 11 9 4 1 0 3 55 126 107 14 45 46 34 27 22 22 29 36 47 41 29 67 58 22 44 47 45 43 42 43 49 61 55 20 109 120 73 24 2 4 10 15 8 38 30 7 2 2 6 37 133 255 20 
15 249 122 40 9 5 13 7 35 26 1 11 8 4 1 0 5 59 128 99 8 46 46 31 21 8 11 23 32 39 53 52 25 25 52 51 45 43 38 34 34 41 52 68 27 76 125 92 36 4 3 10 15 8 37 29 5 4 3 6 37 133 255 20 
15 249 121 40 9 5 13 7 35 26 1 11 8 4 1 0 5 54 124 103 14 42 48 32 22 12 14 24 31 38 59 59 11 42 56 48 44 39 30 18 22 35 44 67 49 51 125 102 42 7 2 9 14 7 37 28 4 5 3 5 37 133 255 19 
15 249 122 40 9 6 13 6 34 27 1 12 9 3 6 18 30 46 106 108 28 34 49 37 28 24 27 38 50 63 75 59 20 45 54 51 46 39 26 9 15 31 43 70 52 51 128 103 39 8 1 9 15 7 37 28 3 5 3 5 37 133 255 19 
15 248 123 42 10 6 13 5 34 27 1 9 15 46 85 115 128 121 112 109 51 43 55 43 33 37 55 73 75 58 38 31 30 28 43 61 62 52 36 26 27 35 51 76 36 75 134 92 31 8 1 9 15 7 37 27 3 6 3 5 37 134 255 19 
15 248 124 43 11 7 15 4 34 26 6 28 84 140 161 149 126 109 94 85 43 40 57 49 44 61 72 47 9 68 113 138 133 100 48 22 58 68 57 41 36 43 65 70 6 113 130 69 22 6 1 9 15 7 36 26 3 6 4 6 38 134 255 19 
14 249 123 42 13 9 16 3 34 29 36 93 146 136 76 21 12 17 26 51 47 9 39 51 60 54 10 73 121 134 131 129 130 131 120 75 9 47 64 55 44 55 69 27 78 141 105 44 14 3 2 9 15 7 36 26 2 7 6 9 38 134 255 19 
14 249 122 42 12 10 18 4 32 44 86 136 113 23 48 69 67 62 62 69 74 47 3 36 37 36 107 135 116 91 76 72 78 94 116 125 85 14 38 56 59 73 57 31 99 96 62 46 28 12 1 9 15 7 36 24 3 10 8 8 37 134 255 19 
14 249 122 41 11 8 18 4 32 73 128 122 31 55 73 62 53 50 50 54 68 73 49 13 47 120 137 102 71 58 53 51 53 59 73 107 127 85 23 47 73 74 42 62 92 116 134 132 112 78 39 11 14 7 35 23 5 11 5 5 37 133 255 18 
14 249 122 40 9 7 18 2 41 105 145 81 25 74 62 50 46 45 45 48 54 71 74 37 102 142 108 68 53 46 43 42 43 46 51 71 114 130 81 39 29 1 35 42 33 45 71 104 134 138 106 56 19 11 36 23 4 10 4 5 36 133 255 18 
14 250 123 40 9 7 18 2 55 128 142 46 53 76 56 44 36 31 36 42 46 68 67 40 119 124 79 54 45 40 37 35 36 38 42 51 83 135 126 64 52 84 92 84 73 64 49 19 34 102 133 106 52 25 39 24 3 9 4 4 36 133 255 18 
14 251 123 40 9 7 18 4 65 139 134 26 64 78 57 41 23 7 25 37 44 75 53 50 120 104 62 47 40 34 29 26 28 33 38 43 61 120 136 69 60 76 70 67 65 65 65 67 57 16 96 123 82 47 44 26 3 10 3 3 35 133 255 18 
14 252 123 40 9 7 17 5 68 143 133 23 63 79 59 44 28 19 30 39 50 81 41 69 119 91 53 42 36 29 20 15 19 27 34 39 48 105 132 54 36 54 42 38 38 38 41 52 75 70 27 112 101 70 54 27 3 10 3 3 36 133 255 18 
14 253 124 40 9 7 17 6 63 137 140 37 55 81 63 47 38 36 40 45 53 80 34 81 121 90 53 41 35 27 15 1 12 24 33 38 44 102 132 53 37 60 41 33 31 32 36 43 65 94 29 86 110 87 64 28 3 10 3 3 36 133 255 18 
14 253 124 40 9 7 17 6 55 120 148 68 35 80 75 55 44 42 44 45 46 70 33 80 125 98 60 43 36 31 20 14 18 28 35 39 49 110 134 46 49 67 45 35 28 25 29 38 56 96 57 61 111 97 70 29 2 9 3 3 36 133 255 18 
14 254 124 40 8 7 18 6 49 92 140 112 18 60 91 88 74 64 58 55 55 72 56 83 136 114 71 46 40 35 29 26 27 33 37 40 63 127 128 21 63 64 44 34 21 10 20 33 51 96 68 50 111 101 72 31 1 9 3 3 36 133 255 18 
15 254 124 40 9 7 17 6 46 65 103 136 101 22 44 86 104 107 104 100 96 87 62 74 141 133 90 54 42 39 35 34 35 37 39 46 91 144 101 17 69 54 41 32 21 10 19 31 55 103 66 57 115 98 68 31 1 9 3 3 36 133 255 18 
15 254 125 41 9 7 16 6 43 46 56 103 141 127 77 23 56 85 82 64 40 16 20 28 107 143 121 81 51 41 39 39 39 38 43 73 138 152 60 49 62 41 36 34 29 25 27 35 69 112 49 82 119 87 62 31 1 9 3 3 36 133 255 18 
15 255 124 41 10 7 16 6 41 37 25 47 94 130 132 99 44 5 33 45 57 64 62 42 36 114 144 128 93 62 43 36 38 49 82 141 183 135 60 74 64 47 38 34 31 31 35 56 101 110 11 117 113 67 56 30 1 9 3 3 36 133 255 18 
15 255 125 41 9 7 15 7 40 33 11 16 35 73 127 121 41 58 79 78 75 68 61 60 35 36 111 150 153 137 120 112 116 138 172 187 152 76 57 82 75 64 66 73 75 78 92 119 129 56 82 142 86 46 52 29 2 10 3 3 38 137 255 17 
15 255 132 42 10 7 16 7 42 34 4 11 12 91 159 108 20 75 74 69 67 64 64 65 63 36 26 97 154 185 194 194 195 191 167 114 58 23 34 72 61 34 40 67 93 112 119 101 32 82 156 124 51 32 48 28 6 10 9 18 58 153 255 15 
15 255 148 47 11 7 16 9 47 37 3 12 32 140 177 68 51 84 75 69 64 62 65 69 70 64 47 40 82 116 127 125 112 83 42 17 25 32 17 85 88 68 73 65 43 32 43 90 158 197 164 90 40 28 41 28 0 14 32 60 102 177 255 15 
15 255 173 56 13 9 18 12 55 42 3 13 58 187 185 35 79 97 81 67 52 49 61 74 78 76 83 70 27 30 33 20 11 24 33 35 38 47 21 89 149 117 113 150 166 177 197 226 235 194 124 67 40 29 41 35 10 44 85 112 124 169 255 14 
15 255 185 60 14 9 18 15 59 45 4 11 69 202 185 26 88 108 86 60 26 20 52 73 81 94 111 83 15 35 39 38 41 43 41 41 44 51 50 57 184 168 77 81 111 139 180 192 157 99 50 27 18 28 47 24 41 107 133 109 73 128 255 13 
15 255 177 58 13 9 16 16 57 43 4 9 54 179 189 50 74 112 92 63 35 32 54 71 87 111 118 62 12 43 45 40 41 40 39 39 43 48 61 18 158 187 102 22 45 102 126 96 47 20 26 19 13 37 24 36 108 139 110 41 19 110 255 13 
15 255 165 53 12 8 14 16 54 41 3 9 30 135 193 103 31 103 106 78 56 53 61 79 107 104 72 41 32 36 46 40 39 34 28 27 34 41 60 10 121 172 113 56 79 96 58 13 27 34 24 4 29 20 34 101 131 105 38 27 44 109 255 15 
15 255 154 49 11 7 12 16 51 38 3 11 11 80 169 159 49 57 108 107 85 74 84 109 109 29 70 104 64 20 42 41 36 26 14 11 24 36 59 20 96 153 123 97 92 51 4 31 38 27 2 24 17 31 93 123 99 36 27 60 49 110 255 17 
15 255 143 46 10 6 10 17 49 36 3 13 3 35 107 165 135 43 48 102 118 120 123 103 21 100 138 132 104 26 30 43 35 24 12 10 22 39 62 19 90 147 138 111 65 6 30 38 27 2 21 15 28 86 115 93 33 25 58 64 45 112 255 18 
16 255 134 44 11 5 8 16 48 36 4 14 6 11 48 108 154 138 77 11 33 50 28 40 127 164 117 123 139 64 10 43 42 30 21 21 33 56 62 14 108 150 136 91 31 24 35 27 3 19 14 27 81 108 88 33 23 55 64 59 39 114 255 19 
16 255 127 42 12 3 7 13 47 38 7 14 11 1 15 46 94 137 149 135 116 113 136 162 157 112 61 94 150 113 30 30 53 52 49 55 68 69 19 75 133 132 109 63 19 29 24 3 18 13 25 77 103 84 31 22 52 60 59 52 33 117 255 19 
16 251 123 41 11 2 6 7 42 44 16 8 15 9 1 12 34 67 102 124 135 140 136 114 78 45 25 54 123 146 98 28 30 62 73 67 42 13 94 137 114 88 79 44 20 20 3 16 13 24 73 99 83 31 21 50 58 57 52 44 28 121 255 20 
16 246 120 40 11 4 3 2 30 49 33 6 12 16 11 6 6 15 30 47 60 61 52 37 22 12 4 22 69 124 140 113 73 43 37 55 94 137 151 105 51 52 60 35 15 2 17 13 23 71 97 81 32 19 49 57 55 51 45 35 25 125 255 20 
15 243 121 41 11 4 3 1 12 41 49 32 8 12 20 18 15 10 6 4 4 4 4 4 7 11 12 12 23 59 102 128 140 145 148 148 143 124 82 31 5 38 53 34 13 19 15 21 70 95 81 32 19 48 56 55 51 45 36 23 26 129 255 20 
14 242 126 44 11 4 3 2 2 18 43 51 42 27 12 4 1 1 2 4 5 6 5 4 2 1 0 4 12 27 53 81 103 114 114 103 85 61 35 29 16 28 50 40 28 17 19 69 96 80 32 19 48 56 54 50 44 36 25 12 33 136 255 18 
11 244 138 54 13 5 3 4 4 4 18 38 52 57 54 49 47 47 47 47 48 48 48 47 47 47 47 47 49 54 62 71 79 85 86 82 75 68 61 61 49 32 54 51 26 17 69 98 83 33 18 49 57 55 51 45 37 27 16 6 46 152 255 16 
8 249 161 71 18 5 3 4 6 6 6 13 25 36 44 50 52 53 53 54 55 55 55 55 55 55 55 56 57 59 61 65 68 70 71 70 67 64 62 70 62 37 57 44 13 70 102 88 36 18 51 60 59 54 48 39 29 18 9 3 70 182 255 14 
7 255 194 99 33 7 4 4 4 7 9 8 10 15 21 24 24 24 24 26 27 28 29 29 29 29 29 29 30 31 32 34 35 36 36 35 34 32 36 60 56 22 42 21 70 110 96 39 20 54 65 64 60 53 43 32 20 10 4 19 110 221 255 12 
4 252 231 145 64 19 5 3 3 5 7 10 12 13 14 15 16 16 17 17 17 18 19 20 20 20 20 20 20 20 20 21 22 22 22 22 21 20 31 66 60 6 26 68 116 107 45 22 61 73 72 66 59 49 36 22 11 5 5 57 170 255 255 8 
11 222 243 194 118 58 19 4 4 5 4 6 8 9 10 11 12 12 13 13 13 13 14 14 14 14 14 14 14 14 14 14 14 14 14 14 15 16 32 72 71 34 62 108 110 48 24 68 80 79 73 65 53 38 24 13 7 5 44 126 226 255 255 18 
9 201 235 235 208 152 85 29 8 4 4 5 6 5 5 6 6 7 8 6 6 8 6 6 6 6 6 6 6 6 6 6 6 6 6 6 6 11 36 84 97 82 103 107 51 30 81 93 91 85 75 62 45 28 16 6 12 71 158 225 255 255 255 14 
13 167 187 198 232 231 184 116 60 25 8 7 8 9 11 11 11 9 9 8 8 9 7 6 6 6 6 6 6 6 6 6 6 6 6 6 6 12 37 85 117 122 105 43 38 91 105 98 89 80 67 50 33 16 2 38 110 208 255 255 255 255 255 20 
0 133 155 146 177 217 222 202 179 160 143 126 108 91 78 76 85 96 103 106 106 107 108 108 108 108 108 108 108 108 108 108 108 108 108 108 108 108 112 131 156 142 78 13 62 76 62 42 44 62 78 92 109 129 153 186 231 255 255 239 251 255 220 0 
0 72 108 109 113 135 148 164 201 235 248 244 231 214 200 201 213 222 227 229 230 231 231 231 231 231 230 229 229 229 229 229 229 229 230 231 230 228 223 210 182 133 82 72 92 103 111 134 164 190 211 230 246 255 255 255 255 255 215 221 255 229 143 0 
0 42 79 108 125 136 120 112 154 198 227 244 251 253 253 255 255 255 253 251 251 251 251 251 251 250 249 248 247 246 246 246 247 248 248 248 248 247 240 220 183 145 124 131 155 180 198 212 221 231 243 253 255 255 255 251 183 208 234 248 209 133 80 0 
0 37 68 124 201 252 225 167 166 159 170 197 219 241 255 250 229 210 202 199 198 198 197 196 195 193 193 194 193 192 192 192 193 194 193 192 193 193 187 173 154 136 126 131 162 197 215 211 197 192 197 199 187 159 161 153 174 252 255 192 117 75 47 0 
0 18 34 61 127 209 245 222 182 139 110 112 126 139 146 145 136 127 122 121 122 124 124 122 121 122 124 125 125 125 125 125 125 125 125 125 124 122 119 113 107 101 96 99 112 127 135 131 123 116 114 110 103 110 151 198 251 255 193 110 67 46 24 0 
0 8 20 36 74 143 210 234 211 186 163 160 174 188 197 200 199 197 196 196 196 197 199 200 201 203 204 205 208 209 209 209 208 205 204 204 203 201 199 196 192 190 188 187 188 191 193 192 188 179 170 156 152 170 210 241 227 170 102 63 41 23 8 0 
0 1 9 19 37 67 109 150 174 176 176 188 206 211 216 216 217 216 217 219 218 218 220 221 221 221 221 222 223 224 223 223 221 219 218 218 218 217 215 214 212 210 209 208 206 204 204 203 200 193 181 166 157 158 161 150 121 87 60 37 20 7 1 0 
0 0 0 0 0 0 0 0 0 0 0 0 0 0 0 0 0 0 0 0 0 0 0 0 0 0 0 0 0 0 0 0 0 0 0 0 0 0 0 0 0 0 0 0 0 0 0 0 0 0 0 0 0 0 0 1 0 0 0 0 0 0 0 0 
